<svg xmlns="http://www.w3.org/2000/svg" width="135" height="40" fill="none"><path fill="#000" fill-rule="evenodd" d="M130 40H5c-2.8 0-5-2.2-5-5V5c0-2.8 2.2-5 5-5h125c2.8 0 5 2.2 5 5v30c0 2.7-2.2 5-5 5z" clip-rule="evenodd"/><path fill="#A6A6A6" fill-rule="evenodd" d="M5 0h125c2.8 0 5 2.3 5 5v30c0 2.8-2.2 5-5 5H5c-2.8 0-5-2.2-5-5V5c0-2.8 2.2-5 5-5zm129.2 5c0-2.3-1.9-4.2-4.2-4.2H5C2.7.8.8 2.7.8 5v30c0 2.3 1.9 4.2 4.2 4.2h125c2.3 0 4.2-1.9 4.2-4.2V5z" clip-rule="evenodd"/><path fill="#fff" fill-rule="evenodd" d="M47.7 23.1v1.8H52c-.1 1-.5 1.8-1 2.3-.6.6-1.6 1.3-3.3 1.3-2.7 0-4.7-2.1-4.7-4.8a4.72 4.72 0 018-3.5l1.3-1.3a6.4 6.4 0 00-4.5-1.8c-3.6 0-6.7 3-6.7 6.6 0 3.6 3.1 6.6 6.7 6.6 2 0 3.4-.6 4.6-1.9 1.2-1.2 1.6-2.9 1.6-4.2 0-.4 0-.8-.1-1.1h-6.2zm11.1-1.3a4.2 4.2 0 00-4.3 4.3c0 2.4 1.9 4.3 4.3 4.3s4.3-1.8 4.3-4.3c0-2.6-1.9-4.3-4.3-4.3zm5 4.3c0-2.5 1.9-4.3 4.3-4.3s4.3 1.7 4.3 4.3c0 2.5-1.9 4.3-4.3 4.3s-4.3-1.9-4.3-4.3zm1.9-.1c0 1.5 1.1 2.6 2.4 2.6 1.3 0 2.4-1.1 2.4-2.6 0-1.6-1.1-2.6-2.4-2.6-1.3 0-2.4 1.1-2.4 2.6zm-9.3 0c0 1.5 1.1 2.6 2.4 2.6 1.3 0 2.4-1.1 2.4-2.6 0-1.6-1.1-2.6-2.4-2.6-1.3 0-2.4 1.1-2.4 2.6zm33.1-4.2c2.2 0 3.2 1.7 3.6 2.7l.2.5-5.7 2.4c.5.9 1.1 1.3 2.1 1.3s1.6-.5 2.1-1.2l1.4 1c-.4.7-1.6 1.9-3.5 1.9-2.4 0-4.2-1.9-4.2-4.3 0-2.6 1.8-4.3 4-4.3zm-2.2 4.1c0-1.6 1.3-2.5 2.2-2.5.7 0 1.4.4 1.6.9l-3.8 1.6zM84.5 30h-1.9V17.5h1.9V30zm-4.9-7.3c-.5-.5-1.3-1-2.3-1a4.3 4.3 0 00-4.1 4.3c0 2.4 1.9 4.2 4.1 4.2 1 0 1.8-.5 2.2-1h.1v.6c0 1.6-.9 2.5-2.3 2.5-1.1 0-1.9-.8-2.1-1.5l-1.6.7c.5 1.1 1.7 2.5 3.8 2.5 2.2 0 4-1.3 4-4.4V22h-1.8v.7zM75 26c0 1.5 1.1 2.6 2.4 2.6 1.3 0 2.3-1.1 2.3-2.6s-1-2.6-2.3-2.6c-1.3 0-2.4 1.1-2.4 2.6zm26.8-8.5h-4.5V30h1.9v-4.7h2.6c2.1 0 4.1-1.5 4.1-3.9s-2-3.9-4.1-3.9zm-2.6 6h2.7c1.3 0 2.1-1.1 2.2-2.2 0-.9-.8-2.1-2.2-2.1h-2.7v4.3zm14.2-1.8c-1.4 0-2.8.6-3.3 1.9l1.7.7c.4-.7 1-.9 1.7-.9 1 0 1.9.6 2 1.6v.1c-.3-.2-1.1-.5-1.9-.5-1.8 0-3.6 1-3.6 2.8 0 1.7 1.5 2.8 3.1 2.8 1.3 0 1.9-.6 2.4-1.2h.1v1h1.8v-4.8c-.2-2.2-1.9-3.5-4-3.5zm-1.7 5.8c0 .8.9 1.1 1.5 1.1 1 0 2-.8 2.2-2l-.15-.06a3.58 3.58 0 00-1.55-.34c-.9 0-2 .3-2 1.3zm12-5.5l-2.1 5.4h-.1l-2.2-5.4h-2l3.3 7.6-1.9 4.2h1.9l5.1-11.8h-2zm-14.9 8h-1.9V17.5h1.9V30z" clip-rule="evenodd"/><path fill="url(#a-google-play-app-badge-it)" fill-rule="evenodd" d="M10.4 7.5c-.3.3-.5.8-.5 1.4V31c0 .6.2 1.1.5 1.4l.1.1 12.4-12.4v-.2L10.4 7.5z" clip-rule="evenodd"/><path fill="url(#b-google-play-app-badge-it)" fill-rule="evenodd" d="M27 24.3l-4.1-4.1V19.9l4.1-4.1.1.1 4.9 2.8c1.4.8 1.4 2.1 0 2.9l-5 2.7z" clip-rule="evenodd"/><path fill="url(#c-google-play-app-badge-it)" fill-rule="evenodd" d="M27.1 24.2L22.9 20 10.4 32.5c.5.5 1.2.5 2.1.1l14.6-8.4" clip-rule="evenodd"/><path fill="url(#d-google-play-app-badge-it)" fill-rule="evenodd" d="M27.1 15.8L12.5 7.5c-.9-.5-1.6-.4-2.1.1L22.9 20l4.2-4.2z" clip-rule="evenodd"/><path fill="#000" fill-rule="evenodd" d="M27 24.1l-14.5 8.2c-.8.5-1.5.4-2 0l-.1.1.1.1c.5.4 1.2.5 2 0L27 24.1z" clip-rule="evenodd" opacity=".2"/><path fill="#000" fill-rule="evenodd" d="M10.4 32.3c-.3-.3-.4-.8-.4-1.4v.1c0 .6.2 1.1.5 1.4v-.1h-.1zM32 21.3l-5 2.8.1.1 4.9-2.8c.7-.4 1-.9 1-1.4 0 .5-.4.9-1 1.3z" clip-rule="evenodd" opacity=".12"/><path fill="#fff" fill-rule="evenodd" d="M12.5 7.6L32 18.7c.6.4 1 .8 1 1.3 0-.5-.3-1-1-1.4L12.5 7.5C11.1 6.7 10 7.4 10 9v.1c0-1.6 1.1-2.3 2.5-1.5z" clip-rule="evenodd" opacity=".25"/><path fill="#fff" stroke="#fff" stroke-miterlimit="10" stroke-width=".2" d="M41.5 13.13v-6h1.84c.92 0 1.65.28 2.2.84.56.55.84 1.28.84 2.16 0 .9-.28 1.62-.83 2.17-.56.56-1.3.83-2.21.83H41.5v0zm.77-.73h1.06c.7 0 1.25-.2 1.65-.6.4-.4.6-.95.6-1.67 0-.7-.2-1.26-.6-1.66-.4-.4-.95-.6-1.64-.6h-1.07v4.53zM47.46 13.13v-6h.77v6h-.77zM51.3 13.27c-.44 0-.87-.14-1.28-.43a1.98 1.98 0 01-.82-1.2l.7-.28c.09.33.26.6.52.83.26.23.55.34.88.34.33 0 .62-.09.86-.26a.84.84 0 00.35-.72c0-.33-.12-.6-.35-.77a3.69 3.69 0 00-1.13-.51 3 3 0 01-1.2-.65c-.28-.27-.42-.6-.42-1.02 0-.43.17-.8.51-1.12.34-.32.79-.48 1.33-.48.51 0 .93.13 1.24.38.32.26.53.53.62.84l-.7.29a1.04 1.04 0 00-.37-.53c-.2-.16-.46-.24-.77-.24-.3 0-.55.08-.76.24a.75.75 0 00-.31.62c0 .22.1.41.29.57.2.15.47.29.85.41.3.1.54.19.74.28.2.09.4.2.6.35.2.15.36.34.46.56.1.22.16.47.16.76 0 .3-.06.55-.18.78-.12.23-.28.41-.48.55a2.37 2.37 0 01-1.34.4zM55.18 13.13h-.77v-6h2.04c.5 0 .95.17 1.32.51.37.34.56.77.56 1.28s-.19.94-.56 1.28c-.37.34-.81.5-1.32.5h-1.27v2.43zm0-3.16h1.29a1 1 0 00.78-.33c.2-.22.29-.46.29-.72 0-.26-.1-.5-.3-.72a1 1 0 00-.77-.33h-1.3v2.1zM64.2 12.36c-.58.6-1.32.9-2.2.9a3.07 3.07 0 01-3.08-3.13A3.07 3.07 0 0162 7a3.07 3.07 0 013.08 3.13c0 .88-.29 1.62-.87 2.23zm-3.83-.5c.45.45 1 .67 1.63.67a2.2 2.2 0 001.63-.67c.45-.45.67-1.03.67-1.73s-.22-1.27-.67-1.72A2.2 2.2 0 0062 7.74a2.2 2.2 0 00-1.63.67 2.35 2.35 0 00-.66 1.72c0 .7.22 1.28.66 1.73zM66.17 13.13v-6h.94l2.92 4.67h.03l-.03-1.15V7.13h.77v6H70l-3.06-4.89h-.03l.03 1.16v3.73h-.77zM72.17 13.13v-6h.77v6h-.77zM74.31 13.13v-6h2.17c.47 0 .88.16 1.22.47.35.31.52.7.52 1.17 0 .28-.07.54-.22.75a1.4 1.4 0 01-.6.5v.03c.3.1.55.27.74.52.19.25.28.53.28.86 0 .49-.18.9-.54 1.22-.36.32-.79.48-1.28.48h-2.29v0zm.77-3.42h1.4c.3 0 .53-.1.7-.3.18-.18.27-.4.27-.62a.92.92 0 00-.26-.63.86.86 0 00-.67-.29h-1.44v1.84zm0 2.69h1.56c.3 0 .53-.1.72-.31a1 1 0 00.27-.68c0-.25-.1-.47-.28-.68a.97.97 0 00-.75-.3h-1.52v1.97zM79.46 13.13v-6h.77v6h-.77zM81.6 13.13v-6h.78v5.27h2.6v.73H81.6zM89.45 7.87h-2.73v1.9h2.46v.73h-2.46v1.9h2.73v.73h-3.5v-6h3.5v.74zM94.1 13.27c-.43 0-.85-.14-1.27-.43a1.98 1.98 0 01-.82-1.2l.7-.28c.1.33.26.6.52.83.26.23.55.34.88.34.33 0 .62-.09.86-.26a.84.84 0 00.35-.72c0-.33-.11-.6-.35-.77a3.69 3.69 0 00-1.13-.51 3 3 0 01-1.2-.65c-.28-.27-.42-.6-.42-1.02 0-.43.17-.8.51-1.12.35-.32.79-.48 1.34-.48.5 0 .92.13 1.24.38.31.26.52.53.62.84l-.7.29a1.04 1.04 0 00-.38-.53c-.2-.16-.45-.24-.77-.24-.3 0-.55.08-.75.24a.75.75 0 00-.32.62c0 .22.1.41.29.57.2.15.48.29.85.41.3.1.54.19.74.28.2.09.4.2.6.35.2.15.36.34.47.56.1.22.15.47.15.76 0 .3-.06.55-.18.78-.12.23-.28.41-.48.55a2.37 2.37 0 01-1.34.4zM99.3 13.27a2.1 2.1 0 01-1.6-.65 2.4 2.4 0 01-.62-1.71V7.13h.77v3.81c0 .47.13.86.38 1.15.25.3.6.44 1.07.44.47 0 .83-.15 1.08-.44.25-.3.37-.68.37-1.15v-3.8h.78v3.77c0 .7-.2 1.28-.6 1.7-.4.44-.94.66-1.63.66z"/><defs><linearGradient id="a-google-play-app-badge-it" x1="17.44" x2="-2.43" y1="-7.43" y2="-2.05" gradientUnits="userSpaceOnUse"><stop stop-color="#00A0FF"/><stop offset=".01" stop-color="#00A1FF"/><stop offset=".26" stop-color="#00BEFF"/><stop offset=".51" stop-color="#00D2FF"/><stop offset=".76" stop-color="#00DFFF"/><stop offset="1" stop-color="#00E3FF"/></linearGradient><linearGradient id="b-google-play-app-badge-it" x1="33.83" x2="9.64" y1="9.87" y2="9.87" gradientUnits="userSpaceOnUse"><stop stop-color="#FFE000"/><stop offset=".41" stop-color="#FFBD00"/><stop offset=".78" stop-color="orange"/><stop offset="1" stop-color="#FF9C00"/></linearGradient><linearGradient id="c-google-play-app-badge-it" x1="10.08" x2="-5.88" y1="13.51" y2="40.32" gradientUnits="userSpaceOnUse"><stop stop-color="#FF3A44"/><stop offset="1" stop-color="#C31162"/></linearGradient><linearGradient id="d-google-play-app-badge-it" x1=".68" x2="7.76" y1="4.08" y2="16.07" gradientUnits="userSpaceOnUse"><stop stop-color="#32A071"/><stop offset=".07" stop-color="#2DA771"/><stop offset=".48" stop-color="#15CF74"/><stop offset=".8" stop-color="#06E775"/><stop offset="1" stop-color="#00F076"/></linearGradient></defs></svg>
